<svg width="1024" height="1024" viewBox="0 0 1024 1024" fill="none" xmlns="http://www.w3.org/2000/svg">
<g filter="url(#filter0_d_1_13)">
<rect x="100" y="92" width="823" height="818" rx="172" fill="white"/>
</g>
<g filter="url(#filter1_d_1_13)">
<path d="M620.576 354.015L512 73L403.424 354.015L110 458L403.424 561.985L512 843L620.576 561.985L914 458L620.576 354.015Z" fill="white"/>
</g>
<path d="M512 843L620.576 561.985L512 458V843Z" fill="#889595"/>
<path d="M110 458L403.424 561.985L512 458H110Z" fill="#889595"/>
<path d="M620.576 354.015L512 73V458L620.576 354.015Z" fill="#889595"/>
<path d="M403.424 354.015L110 458H512L403.424 354.015Z" fill="#F5F5F5"/>
<path d="M914 458L620.576 354.015L512 458H914Z" fill="#F5F5F5"/>
<path d="M403.424 561.985L512 843V458L403.424 561.985Z" fill="#E6E6E6"/>
<path d="M620.576 561.985L914 458H512L620.576 561.985Z" fill="#727B7B"/>
<path d="M512 73L403.424 354.015L512 458V73Z" fill="#ECF7F7"/>
<defs>
<filter id="filter0_d_1_13" x="100" y="92" width="855" height="850" filterUnits="userSpaceOnUse" color-interpolation-filters="sRGB">
<feFlood flood-opacity="0" result="BackgroundImageFix"/>
<feColorMatrix in="SourceAlpha" type="matrix" values="0 0 0 0 0 0 0 0 0 0 0 0 0 0 0 0 0 0 127 0" result="hardAlpha"/>
<feOffset dx="16" dy="16"/>
<feGaussianBlur stdDeviation="8"/>
<feComposite in2="hardAlpha" operator="out"/>
<feColorMatrix type="matrix" values="0 0 0 0 0 0 0 0 0 0 0 0 0 0 0 0 0 0 0.25 0"/>
<feBlend mode="normal" in2="BackgroundImageFix" result="effect1_dropShadow_1_13"/>
<feBlend mode="normal" in="SourceGraphic" in2="effect1_dropShadow_1_13" result="shape"/>
</filter>
<filter id="filter1_d_1_13" x="62" y="25" width="932" height="898" filterUnits="userSpaceOnUse" color-interpolation-filters="sRGB">
<feFlood flood-opacity="0" result="BackgroundImageFix"/>
<feColorMatrix in="SourceAlpha" type="matrix" values="0 0 0 0 0 0 0 0 0 0 0 0 0 0 0 0 0 0 127 0" result="hardAlpha"/>
<feOffset dx="16" dy="16"/>
<feGaussianBlur stdDeviation="32"/>
<feComposite in2="hardAlpha" operator="out"/>
<feColorMatrix type="matrix" values="0 0 0 0 0.068125 0 0 0 0 0.15 0 0 0 0 0.135262 0 0 0 0.56 0"/>
<feBlend mode="normal" in2="BackgroundImageFix" result="effect1_dropShadow_1_13"/>
<feBlend mode="normal" in="SourceGraphic" in2="effect1_dropShadow_1_13" result="shape"/>
</filter>
</defs>
</svg>
